Coordinates
version=1
nRows=16
nColumns=40
inDegrees=yes

Units are S.I. units (second, meters, Newtons, ...)
Angles are in degrees.

endheader
time	pelvis_tilt	pelvis_list	pelvis_rotation	pelvis_tx	pelvis_ty	pelvis_tz	hip_flexion_r	hip_adduction_r	hip_rotation_r	knee_angle_r	knee_angle_r_beta	ankle_angle_r	subtalar_angle_r	mtp_angle_r	hip_flexion_l	hip_adduction_l	hip_rotation_l	knee_angle_l	knee_angle_l_beta	ankle_angle_l	subtalar_angle_l	mtp_angle_l	lumbar_extension	lumbar_bending	lumbar_rotation	arm_flex_r	arm_add_r	arm_rot_r	elbow_flex_r	pro_sup_r	wrist_flex_r	wrist_dev_r	arm_flex_l	arm_add_l	arm_rot_l	elbow_flex_l	pro_sup_l	wrist_flex_l	wrist_dev_l
     33.06000000	     -6.90082896	     -6.53314566	      2.22542569	      1.05912245	      0.92127263	      0.49549046	     20.15066687	      3.51260333	    -14.04634244	     21.32115699	     21.32115699	      9.52262232	     -3.87411630	     -1.06902754	     34.51467116	    -13.19554928	      5.84732111	     70.01709376	     70.01709376	      9.25898381	    -18.97319042	     14.25053446	    -12.77953369	      5.86194643	      5.69359379	      4.45213195	    -15.22724608	     -1.11668799	     44.85705641	     45.55526508	      0.00000000	      0.00000000	      8.85756516	     -9.37596305	     -0.07313077	     62.11751475	     46.31997924	      0.00000000	      0.00000000
     33.07185714	     -6.99296565	     -6.51054411	      2.57406527	      1.05728501	      0.92179663	      0.49602585	     19.44209300	      3.59666887	    -14.12022454	     20.74249502	     20.74249502	      9.86727095	     -3.89092527	     -1.14459566	     36.36266834	    -13.13035856	      5.94996804	     68.74622981	     68.74622981	      9.60004113	    -19.12760830	     14.85692226	    -12.82106225	      5.68897752	      4.79177832	      7.04906950	    -15.15858164	     -1.23203397	     47.12023069	     45.49219303	      0.00000000	      0.00000000	      7.32669544	     -9.65708247	      0.01960999	     58.74183016	     46.27387863	      0.00000000	      0.00000000
     33.08371429	     -7.08152016	     -6.46284477	      2.84994640	      1.05545523	      0.92227159	      0.49649769	     18.73921459	      3.65628823	    -14.19320424	     20.16222461	     20.16222461	     10.09269399	     -3.84544133	     -1.58247299	     38.04341869	    -12.98511937	      6.00009795	     67.31009070	     67.31009070	     10.37113667	    -19.20870399	     16.95048654	    -12.84630192	      5.53830177	      5.26359327	      8.09266005	    -16.19759243	     -0.39198601	     51.43464756	     45.30903317	      0.00000000	      0.00000000	      8.06681758	     -8.53397672	     -0.83349749	     51.15805238	     46.33220576	      0.00000000	      0.00000000
     33.09557143	     -7.11431617	     -6.44936486	      3.17395906	      1.05366293	      0.92271983	      0.49696834	     17.95879460	      3.77138594	    -14.22409656	     19.53088172	     19.53088172	     10.41237269	     -3.81189783	     -1.64070487	     39.45965149	    -12.86060599	      6.04494862	     65.53078485	     65.53078485	     10.52915950	    -19.28934314	     17.47213518	    -13.02235078	      5.38212594	      4.36810446	     10.65832517	    -16.01484820	     -0.64365059	     54.03115000	     45.24286949	      0.00000000	      0.00000000	      6.57744872	     -8.81821034	     -0.76033723	     48.16916213	     46.29527705	      0.00000000	      0.00000000
     33.10742857	     -7.21503096	     -6.40708722	      3.42214126	      1.05189195	      0.92292770	      0.49725881	     17.33344309	      3.81546727	    -14.32109379	     19.04503642	     19.04503642	     10.64013383	     -3.78758072	     -2.09652044	     40.78592230	    -12.65648862	      6.03409819	     63.59150678	     63.59150678	     10.96341829	    -19.32000771	     18.93283372	    -13.04092811	      5.25253482	      4.96645065	     11.65447662	    -17.12643692	     -0.04112036	     58.46146592	     45.08242677	      0.00000000	      0.00000000	      7.55549643	     -7.88136817	     -1.53746223	     40.78070167	     46.36627039	      0.00000000	      0.00000000
     33.11928571	     -7.31027570	     -6.41386462	      3.68090571	      1.05013743	      0.92295789	      0.49749315	     16.68616624	      3.92896260	    -14.34355857	     18.51806750	     18.51806750	     11.00402218	     -3.72828742	     -2.28849937	     41.96343139	    -12.42228288	      6.13909677	     61.43957930	     61.43957930	     10.97485730	    -19.32115243	     19.28582965	    -13.14391372	      5.14880664	      4.51867755	     13.91524101	    -17.17951166	     -0.44143263	     61.56927461	     45.01208821	      0.00000000	      0.00000000	      6.59392746	     -7.88675187	     -1.81346561	     37.52452297	     46.37998444	      0.00000000	      0.00000000
     33.13114286	     -7.38542072	     -6.34630614	      3.86237693	      1.04849955	      0.92314100	      0.49755897	     16.05569265	      3.93575572	    -14.43401597	     18.07374432	     18.07374432	     11.19156780	     -3.62776543	     -2.61026512	     42.79914892	    -12.09640074	      6.14903501	     58.90829432	     58.90829432	     10.91437878	    -19.31026541	     19.37958454	    -13.23864861	      4.99148541	      4.81607616	     15.22683172	    -17.80513997	     -0.35156025	     65.70321781	     44.89915479	      0.00000000	      0.00000000	      6.70006631	     -7.50044435	     -2.54954004	     32.61114903	     46.46606646	      0.00000000	      0.00000000
     33.14300000	     -7.53071934	     -6.34789382	      4.04139390	      1.04679219	      0.92303672	      0.49743968	     15.51568780	      4.00110835	    -14.47833772	     17.64614389	     17.64614389	     11.53674862	     -3.52149475	     -2.72571893	     43.61846446	    -11.70985942	      6.37513390	     56.25439367	     56.25439367	     10.76595396	    -19.22275403	     19.34475358	    -13.29240315	      4.91795713	      4.34557407	     17.70676510	    -17.64151676	     -0.73925398	     68.37456704	     44.84264994	      0.00000000	      0.00000000	      5.33902230	     -7.65309570	     -2.69825404	     30.75119727	     46.46202461	      0.00000000	      0.00000000
     33.15485714	     -7.68624570	     -6.29992929	      4.16271297	      1.04517116	      0.92286368	      0.49714275	     14.98784615	      3.98331138	    -14.59479370	     17.24641231	     17.24641231	     11.82328657	     -3.21612697	     -3.06307024	     44.18972839	    -11.23904499	      6.63384401	     53.32622490	     53.32622490	     10.25251294	    -19.11229964	     18.11251208	    -13.34161216	      4.80810851	      4.65787374	     19.17872659	    -18.35479268	     -0.59781629	     72.98067225	     44.72499764	      0.00000000	      0.00000000	      4.99847037	     -7.43578730	     -3.34383742	     27.36550947	     46.54877414	      0.00000000	      0.00000000
     33.16671429	     -7.92674358	     -6.20209146	      4.22941855	      1.04360457	      0.92259308	      0.49667227	     14.53310143	      3.92515200	    -14.54871092	     16.82287238	     16.82287238	     12.15047702	     -3.05217652	     -3.14162704	     44.68615317	    -10.63571179	      7.03817430	     50.31456518	     50.31456518	     10.17090726	    -18.86310050	     18.10398296	    -13.24369229	      4.61200647	      4.46877829	     21.73585535	    -18.20576385	     -0.98543481	     75.26674303	     44.67864661	      0.00000000	      0.00000000	      3.59761626	     -7.59628858	     -3.39785574	     26.27480213	     46.53345425	      0.00000000	      0.00000000
     33.17857143	     -8.07157043	     -6.21308676	      4.29849180	      1.04227519	      0.92240340	      0.49608557	     13.95334067	      3.96267978	    -14.66823333	     16.38107442	     16.38107442	     12.46081393	     -2.64026511	     -3.27943337	     44.88943178	    -10.15222539	      7.55423329	     47.12478272	     47.12478272	      9.96902514	    -18.40903283	     17.61131390	    -13.26097146	      4.61752892	      3.98739455	     24.15005305	    -17.73105597	     -1.01402377	     78.64679560	     44.58606578	      0.00000000	      0.00000000	      2.08193334	     -7.80380324	     -3.45597547	     24.99100964	     46.51797850	      0.00000000	      0.00000000
     33.19042857	     -8.24910453	     -6.25176284	      4.29982721	      1.04120557	      0.92197554	      0.49535153	     13.38911462	      3.98660866	    -15.00150774	     15.94966691	     15.94966691	     12.75329671	     -1.87692547	     -3.64209434	     44.89642242	     -9.83487265	      7.89695307	     43.74282737	     43.74282737	      9.02751690	    -17.73202614	     14.51512742	    -13.28894344	      4.65024353	      4.68859201	     25.41839038	    -18.76063983	     -0.69175277	     84.02498653	     44.44721362	      0.00000000	      0.00000000	      1.16622021	     -7.74536621	     -3.68195835	     23.88591103	     46.53398916	      0.00000000	      0.00000000
     33.20228571	     -8.42345954	     -6.32006902	      4.26875755	      1.04037037	      0.92163684	      0.49457957	     12.73562385	      4.11905967	    -14.97572405	     15.36168778	     15.36168778	     13.05320855	     -1.48741620	     -3.71631979	     44.81036393	     -9.58378342	      8.24078109	     40.51098053	     40.51098053	      9.17450584	    -16.54233609	     14.27482870	    -13.17509855	      4.70527384	      4.50355141	     27.96500253	    -18.27645288	     -1.03456330	     86.65098956	     44.39335791	      0.00000000	      0.00000000	     -0.27527659	     -7.82728039	     -3.66080078	     23.12675320	     46.50099817	      0.00000000	      0.00000000
     33.21414286	     -8.55857917	     -6.47885004	      4.22979026	      1.03992478	      0.92115632	      0.49365941	     11.97208801	      4.31072491	    -15.24211998	     14.69917340	     14.69917340	     13.30208909	     -0.64179249	     -4.00636192	     44.53553516	     -9.51455446	      8.42379449	     37.28440895	     37.28440895	      8.77497635	    -15.28504572	     12.37119643	    -13.14983873	      4.89700804	      4.88573894	     29.70774552	    -18.55286597	     -1.13612250	     91.08100944	     44.31987370	      0.00000000	      0.00000000	     -1.76848969	     -7.90242984	     -3.41781275	     23.32316504	     46.39450918	      0.00000000	      0.00000000
     33.22600000	     -8.64981424	     -6.58779928	      4.13678936	      1.03982884	      0.92075392	      0.49265941	     11.09056206	      4.50074720	    -15.25763822	     13.94195170	     13.94195170	     13.55656163	     -0.03777623	     -4.05791479	     44.10860950	     -9.47789147	      8.37952388	     34.31418369	     34.31418369	      9.08994831	    -13.83645349	     12.46268542	    -13.06359737	      5.01200980	      4.84040094	     32.14805770	    -18.03030604	     -1.23749390	     93.69803008	     44.26233849	      0.00000000	      0.00000000	     -3.26974471	     -7.95755052	     -3.29639516	     22.90778416	     46.33565202	      0.00000000	      0.00000000
     33.23785714	     -8.73533622	     -6.80004863	      4.03492264	      1.04015380	      0.92012907	      0.49154741	     10.09897503	      4.78896447	    -15.48567222	     13.04177037	     13.04177037	     13.80034724	      0.93907294	     -4.19374620	     43.66251337	     -9.58222847	      8.14242765	     31.68905097	     31.68905097	      9.37957298	    -12.49460864	     12.55994498	    -12.93142590	      5.27627191	      4.96928752	     34.28670396	    -17.82352437	     -1.05203422	     97.08945921	     44.18386216	      0.00000000	      0.00000000	     -4.96018775	     -8.03333604	     -3.03910861	     23.31640841	     46.23095387	      0.00000000	      0.00000000
